# xmcd CD database file
#
# Track frame offsets:
#	187
#	19715
#	36720
#	56762
#	75082
#	91430
#	107737
#	130252
#	143040
#	158270
#
# Disc length: 2367 seconds
#
# Revision: 0
# Processed by: cddbd v1.5.1PL0 Copyright (c) Steve Scherf et al.
# Submitted via: CDex 1.51
#
DISCID=76093d0a
DTITLE=Various Artist - 新世紀GPXサイバーフォーミュラ VOCAL COLLECTION ?
DYEAR=1993
DGENRE=Anime
TTITLE0=金丸淳一/君に恋してる
TTITLE1=関俊彦/ハリケーンGO！GO！
TTITLE2=置鮎龍太郎/ONE NIGHT FOR YOU
TTITLE3=島田敏/グーのAMERICAN DREAM
TTITLE4=緑川光/MY TRUE HEART
TTITLE5=安達忍/FIGHT OH！
TTITLE6=速水奨/ON MY TRUTH
TTITLE7=富田晃介/Oh！ WONDERFUL SHINING DAYS
TTITLE8=松岡洋子/EVERYDAY EVERYNIGHT
TTITLE9=三石琴乃/太陽を探しに行こう
EXTD=YEAR: 1993
EXTT0=
EXTT1=
EXTT2=
EXTT3=
EXTT4=
EXTT5=
EXTT6=
EXTT7=
EXTT8=
EXTT9=
PLAYORDER=
